<svg width="20" height="20" viewBox="0 0 20 20" fill="none" xmlns="http://www.w3.org/2000/svg">
<path fill-rule="evenodd" clip-rule="evenodd" d="M14 9.04057L9.2381 3.96216C8.79162 3.51387 8.79162 2.78586 9.2381 2.3368C9.68457 1.88773 10.4084 1.88773 10.8541 2.3368L17.6655 9.18693C17.7714 9.29422 17.856 9.42143 17.9131 9.5632C17.9695 9.7111 18 9.85133 18 10C18 10.1487 17.9695 10.2889 17.9192 10.4192C17.856 10.5786 17.7714 10.7065 17.6655 10.8131L10.8541 17.6632C10.4084 18.1123 9.68457 18.1123 9.2381 17.6632C8.79162 17.2141 8.79162 16.4861 9.2381 16.0378L14.0983 11.0522H3.14286C2.51124 11.0522 2 10.6353 2 10C2 9.36472 2.51124 8.85052 3 9.04057H14Z" fill="#8393B7"/>
</svg>
