<svg width="20" height="20" viewBox="0 0 20 20" fill="none" xmlns="http://www.w3.org/2000/svg">
<path fill-rule="evenodd" clip-rule="evenodd" d="M14.7071 8.707L10.0001 13.414L5.29309 8.707C4.90209 8.316 4.90209 7.684 5.29309 7.293C5.68409 6.902 6.31609 6.902 6.70709 7.293L9.00009 9.586V3C9.00009 2.448 9.44809 2 10.0001 2C10.5521 2 11.0001 2.448 11.0001 3V9.586L13.2931 7.293C13.6841 6.902 14.3161 6.902 14.7071 7.293C15.0981 7.684 15.0981 8.316 14.7071 8.707ZM18.2429 10.3461C18.6049 9.9281 19.2359 9.8821 19.6539 10.2431C20.0719 10.6041 20.1179 11.2361 19.7569 11.6541L14.2749 18.0001H5.71789L0.242886 11.6621C-0.117114 11.2441 -0.072114 10.6131 0.345886 10.2521C0.763886 9.8901 1.39589 9.9361 1.75689 10.3551L6.63289 16.0001H13.3599L18.2429 10.3461Z" fill="#8393B7"/>
</svg>
