<svg width="20" height="21" viewBox="0 0 20 21" fill="none" xmlns="http://www.w3.org/2000/svg">
<path fill-rule="evenodd" clip-rule="evenodd" d="M15.0137 9.112C15.0797 9.474 15.1117 9.81 15.1117 10.142C15.1117 10.473 15.0797 10.81 15.0137 11.172L14.8807 11.903L16.8567 13.056L15.7007 15.077L14.7657 14.531C14.1747 14.184 13.4317 14.231 12.8707 14.654C12.5257 14.914 12.1477 15.134 11.7487 15.308C11.1137 15.583 10.7027 16.202 10.7027 16.883V18H8.41173V16.883C8.41173 16.202 8.00173 15.583 7.36673 15.308C6.96773 15.134 6.58973 14.914 6.24273 14.652C5.68273 14.231 4.93973 14.184 4.35173 14.529L3.41373 15.077L2.25873 13.056L4.23473 11.903L4.10173 11.172C4.03573 10.81 4.00373 10.473 4.00373 10.142C4.00373 9.81 4.03573 9.474 4.10173 9.112L4.23473 8.382L2.25873 7.228L3.41373 5.207L4.35173 5.755C4.94273 6.099 5.68473 6.05 6.24373 5.631C6.58973 5.37 6.96773 5.15 7.36673 4.976C8.00173 4.7 8.41173 4.082 8.41173 3.401V2.117H10.7027V3.401C10.7027 4.082 11.1137 4.7 11.7477 4.975C12.1477 5.15 12.5257 5.37 12.8717 5.631C13.4307 6.051 14.1727 6.1 14.7637 5.755L15.7017 5.207L16.8567 7.228L14.8807 8.382L15.0137 9.112ZM18.2657 11.426L17.1997 10.804C17.2197 10.581 17.2287 10.361 17.2287 10.142C17.2287 9.923 17.2197 9.703 17.1997 9.48L18.2657 8.858C19.0757 8.385 19.3557 7.337 18.8897 6.519L17.3367 3.8C17.1087 3.4 16.7397 3.113 16.2957 2.994C15.8517 2.874 15.3897 2.936 14.9937 3.168L13.9347 3.786C13.5837 3.54 13.2107 3.322 12.8207 3.137V1.883C12.8207 0.992 12.1187 0 11.1117 0H8.00373C6.99673 0 6.29473 0.992 6.29473 1.883V3.137C5.90473 3.322 5.53173 3.54 5.18073 3.786L4.12173 3.168C3.72473 2.936 3.26373 2.874 2.81973 2.994C2.37573 3.113 2.00673 3.4 1.77973 3.798L0.224732 6.52C-0.240268 7.337 0.0397321 8.385 0.848732 8.858L1.91573 9.48C1.89573 9.703 1.88673 9.923 1.88673 10.142C1.88673 10.361 1.89573 10.581 1.91573 10.804L0.848732 11.426C0.0397321 11.899 -0.240268 12.947 0.224732 13.765L1.77873 16.484C2.00573 16.884 2.37573 17.171 2.81973 17.29C3.26373 17.411 3.72573 17.348 4.12073 17.116L5.18073 16.498C5.53173 16.744 5.90473 16.962 6.29473 17.147V18.4C6.29473 19.347 7.06173 20.117 8.00373 20.117H11.1117C12.0537 20.117 12.8207 19.347 12.8207 18.4V17.147C13.2107 16.962 13.5837 16.744 13.9347 16.498L14.9937 17.116C15.3897 17.348 15.8527 17.408 16.2967 17.29C16.7407 17.171 17.1097 16.883 17.3357 16.486L18.8907 13.764C19.3557 12.947 19.0757 11.899 18.2657 11.426Z" fill="#8393B7"/>
<path fill-rule="evenodd" clip-rule="evenodd" d="M9.5 11C8.949 11 8.5 10.551 8.5 10C8.5 9.449 8.949 9 9.5 9C10.051 9 10.5 9.449 10.5 10C10.5 10.551 10.051 11 9.5 11ZM9.5 7C7.846 7 6.5 8.346 6.5 10C6.5 11.654 7.846 13 9.5 13C11.154 13 12.5 11.654 12.5 10C12.5 8.346 11.154 7 9.5 7Z" fill="#8393B7"/>
</svg>
