<svg width="20" height="20" viewBox="0 0 20 20" fill="none" xmlns="http://www.w3.org/2000/svg">
<path fill-rule="evenodd" clip-rule="evenodd" d="M4.631 5H17.2C18.971 5 20 6.118 20 7.958V16C20 17.863 18.977 19 17.2 19H12.7H2.8C1.023 19 0 17.863 0 16V4C0 2.185 1.011 1.062 2.8 1H15.725C16.278 1 16.725 1.448 16.725 2C16.725 2.552 16.278 3 15.725 3H12.344H2.835C2.189 3.022 2 3.232 2 4V16C2 16.803 2.177 17 2.8 17H17.2C17.823 17 18 16.803 18 16V7.958C18 7.187 17.828 7 17.2 7H4.631C4.079 7 3.631 6.552 3.631 6C3.631 5.448 4.079 5 4.631 5ZM13.9998 10C15.1038 10 15.9998 10.896 15.9998 12C15.9998 13.104 15.1038 14 13.9998 14C12.8958 14 11.9998 13.104 11.9998 12C11.9998 10.896 12.8958 10 13.9998 10Z" fill="#8393B7"/>
</svg>
