<svg width="20" height="20" viewBox="0 0 20 20" fill="none" xmlns="http://www.w3.org/2000/svg">
<path fill-rule="evenodd" clip-rule="evenodd" d="M12.6489 9.15892C13.0956 9.48376 13.721 9.385 14.0459 8.93835C14.6622 8.09085 15 7.06956 15 6C15 3.23858 12.7614 1 10 1C7.23858 1 5 3.23858 5 6C5 7.12855 5.37617 8.20247 6.0565 9.07419C6.39629 9.50957 7.0247 9.58706 7.46008 9.24727C7.89547 8.90747 7.97296 8.27907 7.63316 7.84368C7.22479 7.32043 7 6.67868 7 6C7 4.34315 8.34315 3 10 3C11.6569 3 13 4.34315 13 6C13 6.64331 12.7982 7.25355 12.4284 7.76201C12.1035 8.20867 12.2023 8.83409 12.6489 9.15892ZM15.745 10H17C18.104 10 19 10.896 19 12V19.25H17V12H16.708C15.025 13.883 12.605 15 10 15C7.395 15 4.975 13.883 3.292 12H3V19.25H1V12C1 10.896 1.896 10 3 10H4.255C5.52 11.813 7.621 13 10 13C12.379 13 14.48 11.813 15.745 10Z" fill="#8393B7"/>
</svg>
