<svg width="20" height="20" viewBox="0 0 20 20" fill="none" xmlns="http://www.w3.org/2000/svg">
<path fill-rule="evenodd" clip-rule="evenodd" d="M18.0003 2C18.0003 1.448 18.4483 1 19.0003 1C19.5523 1 20.0003 1.448 20.0003 2V17C20.0003 17.552 19.5523 18 19.0003 18H1.00029C0.448288 18 0.000287494 17.552 0.000287494 17C0.000287494 16.448 0.448288 16 1.00029 16H18.0003V2ZM5.91689 8.2665L1.76589 13.2085C1.41089 13.6315 0.779887 13.6865 0.356887 13.3315C-0.0661125 12.9765 -0.121113 12.3455 0.234887 11.9225L5.03689 6.2045C5.39589 5.7775 6.03389 5.7265 6.45589 6.0905L9.86289 9.0275L13.1399 3.4905C13.4209 3.0155 14.0349 2.8585 14.5099 3.1395C14.9849 3.4205 15.1419 4.0345 14.8609 4.5095L10.9749 11.0745C10.6579 11.6105 9.93289 11.7295 9.46089 11.3225L5.91689 8.2665Z" fill="#8393B7"/>
</svg>
