<svg width="20" height="20" viewBox="0 0 20 20" fill="none" xmlns="http://www.w3.org/2000/svg">
<path fill-rule="evenodd" clip-rule="evenodd" d="M10 18C6.134 18 3 14.866 3 11C3 7.134 6.134 4 10 4C13.866 4 17 7.134 17 11C17 14.866 13.866 18 10 18ZM10 2C5.029 2 1 6.029 1 11C1 15.971 5.029 20 10 20C14.971 20 19 15.971 19 11C19 6.029 14.971 2 10 2Z" fill="#8393B7"/>
<path fill-rule="evenodd" clip-rule="evenodd" d="M16.7073 0.29325L19.7073 3.29325C20.0982 3.68425 20.0982 4.31625 19.7073 4.70725C19.3162 5.09825 18.6842 5.09825 18.2933 4.70725L15.2933 1.70725C14.9023 1.31625 14.9023 0.68425 15.2933 0.29325C15.6842 -0.09775 16.3162 -0.09775 16.7073 0.29325ZM1.70725 4.70735L4.70725 1.70735C5.09825 1.31635 5.09825 0.68435 4.70725 0.29335C4.31625 -0.09765 3.68425 -0.09765 3.29325 0.29335L0.29325 3.29335C-0.09775 3.68435 -0.09775 4.31635 0.29325 4.70735C0.68425 5.09835 1.31625 5.09835 1.70725 4.70735ZM11.0002 10.5863V7.00025C11.0002 6.44825 10.5522 6.00025 10.0002 6.00025C9.44825 6.00025 9.00025 6.44825 9.00025 7.00025V11.0002C9.00025 11.1302 9.02625 11.2603 9.07725 11.3822C9.12825 11.5042 9.20125 11.6152 9.29325 11.7072L12.2933 14.7072C12.6842 15.0982 13.3162 15.0982 13.7072 14.7072C14.0982 14.3162 14.0982 13.6842 13.7072 13.2933L11.0002 10.5863Z" fill="#8393B7"/>
</svg>
