<svg width="20" height="20" viewBox="0 0 20 20" fill="none" xmlns="http://www.w3.org/2000/svg">
<path fill-rule="evenodd" clip-rule="evenodd" d="M19.665 10C19.665 13.3137 15.4867 16 10.3325 16C5.1783 16 1 13.3137 1 10C1 6.68629 5.1783 4 10.3325 4C15.4867 4 19.665 6.68629 19.665 10ZM14.1533 10C14.1533 12.2673 12.3896 14.1053 10.2139 14.1053C8.03824 14.1053 6.27451 12.2673 6.27451 10C6.27451 7.73273 8.03824 5.89474 10.2139 5.89474C12.3896 5.89474 14.1533 7.73273 14.1533 10ZM10.2139 12C11.3185 12 12.2139 11.1046 12.2139 10C12.2139 8.89543 11.3185 8 10.2139 8C9.10934 8 8.21391 8.89543 8.21391 10C8.21391 11.1046 9.10934 12 10.2139 12Z" fill="#8393B7"/>
</svg>
