<svg width="20" height="20" viewBox="0 0 20 20" fill="none" xmlns="http://www.w3.org/2000/svg">
<path fill-rule="evenodd" clip-rule="evenodd" d="M3 3H17V6.5C17 6.77614 17.2239 7 17.5 7H18.5C18.7761 7 19 6.77614 19 6.5V1.5C19 1.22386 18.7761 1 18.5 1H1.5C1.22386 1 1 1.22386 1 1.5V6.5C1 6.77614 1.22386 7 1.5 7H2.5C2.77614 7 3 6.77614 3 6.5V3ZM11 9H14.5C14.7761 9 15 9.22386 15 9.5V10.5C15 10.7761 14.7761 11 14.5 11H11V14.5C11 14.7761 10.7761 15 10.5 15H9.5C9.22386 15 9 14.7761 9 14.5V11H5.5C5.22386 11 5 10.7761 5 10.5V9.5C5 9.22386 5.22386 9 5.5 9H9V5.5C9 5.22386 9.22386 5 9.5 5H10.5C10.7761 5 11 5.22386 11 5.5V9ZM17 17V13.5C17 13.2239 17.2239 13 17.5 13H18.5C18.7761 13 19 13.2239 19 13.5V18.5C19 18.7761 18.7761 19 18.5 19H1.5C1.22386 19 1 18.7761 1 18.5V13.5C1 13.2239 1.22386 13 1.5 13H2.5C2.77614 13 3 13.2239 3 13.5V17H17Z" fill="#8393B7"/>
</svg>
