<svg width="20" height="20" viewBox="0 0 20 20" fill="none" xmlns="http://www.w3.org/2000/svg">
<path d="M1 10H18V9H1V10Z" fill="#8393B7"/>
<path d="M9 1L9 18H10L10 1H9Z" fill="#8393B7"/>
<path fill-rule="evenodd" clip-rule="evenodd" d="M8 1H1V8H8V1ZM3 6V3H6V6H3Z" fill="#8393B7"/>
<path fill-rule="evenodd" clip-rule="evenodd" d="M18 1H11V8H18V1ZM16 6H13V3H16V6Z" fill="#8393B7"/>
<path fill-rule="evenodd" clip-rule="evenodd" d="M8 11H1V18H8V11ZM6 16H3V13H6V16Z" fill="#8393B7"/>
<rect x="11" y="15" width="3" height="3" fill="#8393B7"/>
<rect x="11" y="11" width="1" height="3" fill="#8393B7"/>
<rect x="13" y="12" width="3" height="1" fill="#8393B7"/>
<rect x="15" y="14" width="1" height="4" fill="#8393B7"/>
<rect x="17" y="11" width="1" height="7" fill="#8393B7"/>
<rect x="13" y="11" width="1" height="3" fill="#8393B7"/>
</svg>
