<svg width="20" height="20" viewBox="0 0 20 20" fill="none" xmlns="http://www.w3.org/2000/svg">
<path fill-rule="evenodd" clip-rule="evenodd" d="M9 5.828L6.707 8.121C6.316 8.512 5.684 8.512 5.293 8.121C4.902 7.731 4.902 7.098 5.293 6.707L10 2L14.707 6.707C15.098 7.098 15.098 7.731 14.707 8.121C14.316 8.512 13.684 8.512 13.293 8.121L11 5.828V12.414C11 12.966 10.552 13.414 10 13.414C9.448 13.414 9 12.966 9 12.414V5.828ZM17 12.9999C17 12.4479 17.448 11.9999 18 11.9999C18.552 11.9999 19 12.4479 19 12.9999V17.9999H1V12.9999C1 12.4479 1.448 11.9999 2 11.9999C2.552 11.9999 3 12.4479 3 12.9999V15.9999H17V12.9999Z" fill="#8393B7"/>
</svg>
