<svg width="20" height="20" viewBox="0 0 20 20" fill="none" xmlns="http://www.w3.org/2000/svg">
<path fill-rule="evenodd" clip-rule="evenodd" d="M7 12C9.76142 12 12 9.76142 12 7C12 4.23858 9.76142 2 7 2C4.23858 2 2 4.23858 2 7C2 9.76142 4.23858 12 7 12ZM7 14C10.866 14 14 10.866 14 7C14 3.13401 10.866 0 7 0C3.13401 0 0 3.13401 0 7C0 10.866 3.13401 14 7 14Z" fill="#8393B7"/>
<path fill-rule="evenodd" clip-rule="evenodd" d="M10.793 11.2929C11.1835 10.9024 11.8167 10.9024 12.2072 11.2929L17.7072 16.7929C18.0977 17.1834 18.0977 17.8166 17.7072 18.2071C17.3167 18.5976 16.6835 18.5976 16.293 18.2071L9.79297 11.7071C10.4024 12.3166 10.4024 11.6834 10.793 11.2929Z" fill="#8393B7"/>
</svg>
