<svg width="20" height="20" viewBox="0 0 20 20" fill="none" xmlns="http://www.w3.org/2000/svg">
<path fill-rule="evenodd" clip-rule="evenodd" d="M16.464 2.51269L3.03169 8.4921L5.77265 10.2048C6.90125 10.9101 5.8434 12.603 4.7148 11.8977L0.482549 9.25313C-0.115883 8.87919 -0.0995809 8.22756 0.216046 7.80299C0.316255 7.60666 0.481839 7.44208 0.698898 7.34546L17.0039 0.0872792C17.6503 -0.200467 18.3826 0.257109 18.4073 0.964232L19.0313 18.8008C19.0396 19.0383 18.9643 19.2593 18.8318 19.4354C18.5885 19.9052 18.01 20.2055 17.4116 19.8316L13.1793 17.1869C12.0507 16.4817 13.1086 14.7888 14.2372 15.494L16.9781 17.2068L16.464 2.51269ZM10.8994 13.3015L14.091 8.19385C14.7962 7.06525 13.1033 6.00741 12.3981 7.13601L9.20645 12.2437C8.50123 13.3723 10.1941 14.4301 10.8994 13.3015Z" fill="#8393B7"/>
</svg>
