<svg width="20" height="20" viewBox="0 0 20 20" fill="none" xmlns="http://www.w3.org/2000/svg">
<path fill-rule="evenodd" clip-rule="evenodd" d="M15.5794 0.14775L19.8604 4.42675C19.9414 4.50775 19.9874 4.65575 20.0004 4.87275V5.12775C19.9874 5.34475 19.9414 5.49275 19.8604 5.57375L15.5794 9.85275C15.3824 10.0497 15.0634 10.0497 14.8664 9.85275L14.1524 9.13975C13.9554 8.94275 13.9554 8.62375 14.1524 8.42675L16.5804 6.00075H7.5004C7.2244 6.00075 7.0004 5.77675 7.0004 5.50075V4.50075C7.0004 4.22375 7.2244 4.00075 7.5004 4.00075H16.5804L14.1524 1.57375C13.9554 1.37775 13.9554 1.05775 14.1524 0.86175L14.8664 0.14775C15.0634 -0.04925 15.3824 -0.04925 15.5794 0.14775ZM3.42 14.0005H12.5C12.776 14.0005 13 14.2245 13 14.5005V15.5005C13 15.7765 12.776 16.0005 12.5 16.0005H3.42L5.848 18.4264C6.044 18.6234 6.044 18.9425 5.848 19.1395L5.134 19.8535C4.937 20.0494 4.618 20.0494 4.42 19.8535L0.14 15.5744C0.059 15.4935 0.012 15.3444 0 15.1274V14.8735C0.012 14.6565 0.059 14.5075 0.14 14.4265L4.42 10.1475C4.618 9.95145 4.937 9.95145 5.134 10.1475L5.848 10.8615C6.044 11.0584 6.044 11.3774 5.848 11.5745L3.42 14.0005Z" fill="#8393B7"/>
</svg>
