<svg width="20" height="20" viewBox="0 0 20 20" fill="none" xmlns="http://www.w3.org/2000/svg">
<path fill-rule="evenodd" clip-rule="evenodd" d="M14.707 8.707L10 13.414L5.293 8.707C4.902 8.316 4.902 7.684 5.293 7.293C5.684 6.902 6.316 6.902 6.707 7.293L9 9.586V3C9 2.448 9.448 2 10 2C10.552 2 11 2.448 11 3V9.586L13.293 7.293C13.684 6.902 14.316 6.902 14.707 7.293C15.098 7.684 15.098 8.316 14.707 8.707ZM17 13V16H3V13C3 12.448 2.552 12 2 12C1.448 12 1 12.448 1 13V18H19V13C19 12.448 18.552 12 18 12C17.448 12 17 12.448 17 13Z" fill="#8393B7"/>
</svg>
