<svg width="20" height="20" viewBox="0 0 20 20" fill="none" xmlns="http://www.w3.org/2000/svg">
<path d="M0 4C0 3.44772 0.447715 3 1 3C1.55228 3 2 3.44772 2 4V16C2 16.5523 1.55228 17 1 17C0.447715 17 0 16.5523 0 16V4Z" fill="#8393B7"/>
<path d="M1.78801 5.19168C1.3528 4.85166 1.27564 4.22322 1.61566 3.78801C1.95568 3.3528 2.58413 3.27564 3.01933 3.61566L10.8994 9.77228C11.3346 10.1123 11.4118 10.7407 11.0718 11.1759C10.7318 11.6112 10.1033 11.6883 9.66812 11.3483L1.78801 5.19168Z" fill="#8393B7"/>
<path d="M18.8995 5.19168C19.3347 4.85166 19.4119 4.22322 19.0718 3.78801C18.7318 3.3528 18.1034 3.27564 17.6682 3.61566L9.78806 9.77228C9.35285 10.1123 9.27569 10.7407 9.61571 11.1759C9.95573 11.6112 10.5842 11.6883 11.0194 11.3483L18.8995 5.19168Z" fill="#8393B7"/>
<path d="M18 4C18 3.44772 18.4477 3 19 3C19.5523 3 20 3.44772 20 4V16C20 16.5523 19.5523 17 19 17C18.4477 17 18 16.5523 18 16V4Z" fill="#8393B7"/>
<path d="M0 3C0 2.44772 0.447715 2 1 2H19C19.5523 2 20 2.44772 20 3V4L0 4V3Z" fill="#8393B7"/>
<path d="M0 17C0 17.5523 0.447715 18 1 18H19C19.5523 18 20 17.5523 20 17V16H0V17Z" fill="#8393B7"/>
</svg>
