<svg width="20" height="20" viewBox="0 0 20 20" fill="none" xmlns="http://www.w3.org/2000/svg">
<path fill-rule="evenodd" clip-rule="evenodd" d="M9.00009 5.828L6.70709 8.121C6.31609 8.512 5.68409 8.512 5.29309 8.121C4.90209 7.731 4.90209 7.098 5.29309 6.707L10.0001 2L14.7071 6.707C15.0981 7.098 15.0981 7.731 14.7071 8.121C14.3161 8.512 13.6841 8.512 13.2931 8.121L11.0001 5.828V13C11.0001 13.552 10.5521 14 10.0001 14C9.44809 14 9.00009 13.552 9.00009 13V5.828ZM18.2429 10.3461C18.6049 9.9281 19.2359 9.8821 19.6539 10.2431C20.0719 10.6041 20.1179 11.2361 19.7569 11.6541L14.2749 18.0001H5.71789L0.242886 11.6621C-0.117114 11.2441 -0.072114 10.6131 0.345886 10.2521C0.763886 9.8901 1.39589 9.9361 1.75689 10.3551L6.63289 16.0001H13.3599L18.2429 10.3461Z" fill="#8393B7"/>
</svg>
