<svg width="20" height="20" viewBox="0 0 20 20" fill="none" xmlns="http://www.w3.org/2000/svg">
<path fill-rule="evenodd" clip-rule="evenodd" d="M8.11713 2.15319L6.47869 5.40304L2.8044 5.92533C2.0148 6.03705 1.354 6.58248 1.10487 7.33697C0.852745 8.094 1.06273 8.92816 1.64299 9.48151L4.28884 12.0057L3.66538 15.5646C3.52723 16.3507 3.85652 17.1437 4.50919 17.6083C4.86922 17.8645 5.29933 18 5.73754 18C6.07464 18 6.40827 17.9201 6.71002 17.7644L10.0001 16.0715L13.2914 17.765C13.5919 17.9201 13.9256 18 14.2627 18C14.7009 18 15.131 17.8645 15.4909 17.6084C16.1437 17.1437 16.473 16.3507 16.3347 15.5641L15.7114 12.0057L18.3574 9.48137C18.9375 8.92816 19.1475 8.094 18.8945 7.33455C18.6462 6.58248 17.9854 6.03705 17.1952 5.92524L13.5215 5.40304L11.8825 2.15209C11.5269 1.44453 10.7965 1 10.0001 1C9.20373 1 8.4733 1.44453 8.11713 2.15319ZM9.90355 3.05245C9.91873 3.02227 9.95531 3 10.0001 3C10.0449 3 10.0815 3.02227 10.0961 3.05135L11.9708 6.76977L12.2059 7.23614L16.9143 7.90542C16.9569 7.91144 16.987 7.93636 16.9962 7.96408C17.0045 7.98908 16.9983 8.01379 16.9769 8.03415L13.9438 10.9279L13.5568 11.2971L14.3648 15.9097C14.3691 15.9338 14.3583 15.9596 14.3312 15.979C14.3124 15.9923 14.2881 16 14.2627 16C14.2425 16 14.2237 15.9955 14.2076 15.9872L10.4576 14.0577L10.0001 13.8223L5.7938 15.9866C5.77653 15.9955 5.75766 16 5.73754 16C5.71213 16 5.68778 15.9923 5.66889 15.9789C5.64186 15.9596 5.63114 15.9338 5.63529 15.9102L6.35114 11.824L6.44344 11.2971L3.0234 8.03429C3.0019 8.01379 2.99568 7.98908 3.0032 7.96649C3.01316 7.93636 3.04334 7.91144 3.08524 7.90551L7.27724 7.30964L7.79432 7.23614L9.90355 3.05245Z" fill="#8393B7"/>
</svg>
