<svg width="20" height="20" viewBox="0 0 20 20" fill="none" xmlns="http://www.w3.org/2000/svg">
<path fill-rule="evenodd" clip-rule="evenodd" d="M6 9.04057L10.7619 3.96216C11.2084 3.51387 11.2084 2.78586 10.7619 2.3368C10.3154 1.88773 9.59162 1.88773 9.1459 2.3368L2.33448 9.18693C2.22857 9.29422 2.144 9.42143 2.08686 9.5632C2.03048 9.7111 2 9.85133 2 10C2 10.1487 2.03048 10.2889 2.08076 10.4192C2.144 10.5786 2.22857 10.7065 2.33448 10.8131L9.1459 17.6632C9.59162 18.1123 10.3154 18.1123 10.7619 17.6632C11.2084 17.2141 11.2084 16.4861 10.7619 16.0378L5.90171 11.0522H16.8571C17.4888 11.0522 18 10.6353 18 10C18 9.36472 17.4888 8.85052 17 9.04057H6Z" fill="#8393B7"/>
</svg>
